static optimization
version=1
nRows=12
nColumns=93
inDegrees=yes
endheader
time	glut_med1_r	glut_med2_r	glut_med3_r	glut_min1_r	glut_min2_r	glut_min3_r	semimem_r	semiten_r	bifemlh_r	bifemsh_r	sar_r	add_long_r	add_brev_r	add_mag1_r	add_mag2_r	add_mag3_r	tfl_r	pect_r	grac_r	glut_max1_r	glut_max2_r	glut_max3_r	iliacus_r	psoas_r	quad_fem_r	gem_r	peri_r	rect_fem_r	vas_med_r	vas_int_r	vas_lat_r	med_gas_r	lat_gas_r	soleus_r	tib_post_r	flex_dig_r	flex_hal_r	tib_ant_r	per_brev_r	per_long_r	per_tert_r	ext_dig_r	ext_hal_r	glut_med1_l	glut_med2_l	glut_med3_l	glut_min1_l	glut_min2_l	glut_min3_l	semimem_l	semiten_l	bifemlh_l	bifemsh_l	sar_l	add_long_l	add_brev_l	add_mag1_l	add_mag2_l	add_mag3_l	tfl_l	pect_l	grac_l	glut_max1_l	glut_max2_l	glut_max3_l	iliacus_l	psoas_l	quad_fem_l	gem_l	peri_l	rect_fem_l	vas_med_l	vas_int_l	vas_lat_l	med_gas_l	lat_gas_l	soleus_l	tib_post_l	flex_dig_l	flex_hal_l	tib_ant_l	per_brev_l	per_long_l	per_tert_l	ext_dig_l	ext_hal_l	ercspn_r	ercspn_l	intobl_r	intobl_l	extobl_r	extobl_l
1.148000	384.225080	169.706558	179.966144	43.938589	47.001904	52.252508	192.765671	9.373358	0.000000	273.568062	14.261267	0.000000	0.000000	0.000000	0.000000	0.000000	34.833883	0.000000	0.000000	8.890444	0.000000	0.000000	358.596160	385.167344	0.000000	0.000000	53.852098	0.000000	0.000000	0.000000	0.000000	1266.573964	244.676295	873.294721	49.723078	1.774256	2.642770	0.000000	1.848617	13.436364	0.000000	0.000000	0.000000	6.911954	3.589999	4.843724	1.111007	1.473437	1.936518	241.962922	26.928085	93.385255	96.238284	2.298009	0.000000	0.000000	0.000000	0.000000	0.000000	0.000000	0.000000	2.132628	0.000000	0.000000	0.000000	24.197191	27.344573	0.000000	0.223058	3.415052	0.000000	0.000000	0.000000	0.000000	65.826957	11.705888	0.000000	0.000000	0.000000	0.000000	76.808804	0.000000	0.000000	1.882799	21.931611	2.317524	0.000000	0.000000	0.000000	0.000000	0.000000	0.000000
1.164000	379.180959	164.900146	172.216463	43.629312	46.252391	50.820790	228.158567	14.762334	0.000000	281.322982	13.789406	0.000000	0.000000	0.000000	0.000000	0.000000	33.434055	0.000000	0.000000	2.290647	0.000000	0.000000	369.302994	395.648484	0.000000	0.000000	50.814997	0.000000	0.000000	0.000000	0.000000	1315.212507	254.062815	937.144120	53.314321	1.901121	2.835812	0.000000	1.981683	14.428630	0.000000	0.000000	0.000000	14.296061	28.317190	55.726771	2.349353	5.568464	10.709359	262.608563	25.568729	90.155609	139.416067	6.437231	0.000000	0.000000	0.000000	0.000000	0.000000	5.099338	0.000000	0.000000	12.521359	0.000000	0.000000	23.614338	33.649100	0.000000	2.487494	27.184291	0.000000	0.000000	0.000000	0.000000	107.276921	19.090535	0.000000	0.000000	0.000000	0.000000	116.588206	0.000000	0.000000	2.857243	33.284796	3.517845	0.000000	0.000000	0.000000	0.000000	0.000000	0.000000
1.180000	364.159675	156.591203	161.885561	42.299318	44.499661	48.421638	261.311359	20.069904	0.000000	286.383336	13.186464	0.000000	0.000000	0.000000	0.000000	0.000000	31.436995	0.000000	0.000000	0.000000	0.000000	0.000000	374.405097	400.243932	0.000000	0.000000	47.379749	0.000000	0.000000	0.000000	0.000000	1352.879982	261.363282	1019.262128	57.944772	2.063669	3.083736	0.000000	2.150874	15.704635	0.000000	0.000000	0.000000	19.022682	49.543471	100.609801	3.415420	9.212331	18.508927	255.383915	21.823853	73.542113	173.460495	10.299908	0.000000	0.000000	0.000000	0.000000	0.000000	10.241216	0.000000	0.000000	25.572024	5.286766	0.000000	33.964146	51.130210	0.218511	4.554150	48.446604	0.000000	0.000000	0.000000	0.000000	144.139575	25.582331	0.000000	0.000000	0.000000	0.000000	154.242766	0.000000	0.000000	3.778005	44.029114	4.654332	0.000000	0.000000	0.000000	0.000000	0.000000	0.000000
1.196000	348.339835	145.970375	147.307583	41.229587	42.809073	45.737763	237.830778	18.400846	0.000000	282.917681	12.949110	0.000000	0.000000	0.000000	0.000000	0.000000	30.775871	0.000000	0.000000	0.000000	0.000000	0.000000	393.965179	419.940417	0.000000	0.000000	42.902925	0.000000	0.000000	0.000000	0.000000	1352.327755	261.305305	1105.249683	62.780198	2.233989	3.343790	0.000000	2.329179	17.042958	0.000000	0.000000	0.000000	20.218556	60.255355	124.203772	3.925974	11.105207	22.577935	221.387303	16.635644	50.450909	184.143419	12.373954	0.000000	0.000000	0.000000	0.000000	0.000000	13.393127	0.000000	0.000000	32.258296	7.702747	0.000000	46.336657	67.894541	1.508389	5.671364	59.641026	0.000000	0.000000	0.000000	0.000000	160.071803	28.326860	0.000000	0.000000	0.000000	0.000000	172.022871	0.000000	0.000000	4.210503	49.092397	5.190344	0.000000	0.000000	0.000000	0.000000	0.000000	0.000000
1.212000	328.540747	135.398059	135.150239	39.935498	41.038445	43.246933	180.290623	12.596277	0.000000	273.590798	12.909146	0.000000	0.000000	0.000000	0.000000	0.000000	30.777190	0.000000	0.000000	0.000000	0.000000	0.000000	418.783001	445.481247	0.000000	0.000000	39.806654	0.000000	0.000000	0.000000	0.000000	1324.279166	255.967007	1196.504583	67.907428	2.413982	3.619675	0.000000	2.517565	18.465666	0.000000	0.000000	0.000000	10.767736	55.084666	118.093483	3.083096	10.057138	21.143962	152.156606	9.048960	21.218249	164.890748	12.139240	0.000000	0.000000	0.000000	0.000000	0.000000	13.605156	0.000000	0.000000	29.015294	2.842410	0.000000	56.747375	78.777234	3.327150	5.672701	57.510183	0.000000	0.000000	0.000000	0.000000	137.499277	24.139549	0.000000	0.000000	0.000000	0.000000	159.458921	0.000000	0.000000	3.901248	45.500978	4.810982	0.000000	0.000000	0.000000	0.000000	0.000000	0.000000
1.228000	299.866016	120.465025	118.167658	37.827022	38.353663	39.668644	99.087237	4.060979	0.000000	257.554398	12.834699	0.000000	0.000000	0.000000	0.000000	0.000000	30.706015	0.000000	0.121321	0.000000	0.000000	0.000000	443.540402	470.867518	0.000000	0.000000	35.589588	0.000000	0.000000	0.000000	0.000000	1267.303381	245.076746	1296.795519	73.547706	2.611249	3.922920	0.000000	2.723297	20.032371	0.000000	0.000000	0.000000	13.723184	50.286908	105.939333	3.124737	9.325648	19.130222	152.823164	10.034122	25.776297	152.450375	10.848489	0.000000	0.000000	0.000000	0.000000	0.000000	12.119786	0.000000	0.000000	27.249148	4.031290	0.000000	52.053602	71.806547	2.166133	4.950040	51.034006	0.000000	0.000000	0.000000	0.000000	116.913007	20.357985	0.000000	0.000000	0.000000	0.000000	148.067899	0.000000	0.000000	3.623240	42.255130	4.467775	0.000000	0.000000	0.000000	0.000000	0.000000	0.000000
1.244000	268.104795	110.402366	113.232299	35.151836	35.716453	37.221332	12.782346	0.000000	0.000000	236.178365	12.647908	0.000000	0.000000	0.000000	0.000000	0.000000	30.535026	0.000000	0.809767	0.000000	0.000000	0.000000	454.481349	482.528981	0.000000	0.000000	35.752301	0.000000	0.000000	0.000000	0.000000	1183.536335	229.015583	1377.690700	78.080238	2.769537	4.167872	0.000000	2.888975	21.301188	0.000000	0.000000	0.000000	16.239914	34.576558	68.860989	2.368348	6.190937	12.271756	299.237950	31.077165	107.640236	138.830690	5.953164	0.000000	0.000000	0.000000	0.000000	0.000000	3.941163	0.000000	0.000000	23.013238	16.724182	0.000000	13.061855	23.528386	0.821783	2.859615	31.369650	0.000000	0.000000	0.000000	0.000000	76.018460	12.670683	0.000000	0.000000	0.000000	0.000000	137.019937	0.000000	0.000000	3.355360	39.111237	4.134459	0.000000	0.000000	0.000000	0.000000	0.000000	0.000000
1.260000	233.262248	95.075241	98.054272	31.916268	32.166534	33.187984	0.000000	0.000000	0.000000	200.396020	12.186496	0.000000	0.000000	0.000000	0.000000	0.000000	30.231981	0.000000	0.904121	0.000000	0.000000	0.000000	454.302426	481.913426	0.000000	0.000000	32.190392	0.000000	0.000000	0.000000	0.000000	1056.026775	204.537865	1503.998784	85.179521	3.020278	4.550643	0.000000	3.151603	23.269402	0.000000	0.000000	0.000000	0.000000	0.074220	2.129717	0.000000	0.000000	0.000000	358.931908	44.909519	171.602429	57.484246	0.000000	6.703794	9.173955	11.708246	11.728246	26.616193	0.000000	0.094938	4.393003	12.199053	38.706108	39.965608	0.000000	0.000000	5.009517	0.000000	0.000000	0.000000	0.000000	0.000000	0.000000	0.000000	0.000000	0.000000	0.000000	0.000000	0.000000	138.114260	0.000000	0.000000	3.386771	39.435192	4.167597	0.000000	0.000000	0.000000	0.000000	0.000000	0.000000
1.276000	196.935576	69.434857	62.183847	29.443329	28.394205	27.219658	0.000000	0.000000	0.000000	144.557327	12.251972	0.000000	0.000000	0.000000	0.000000	0.000000	32.215224	0.444182	0.257536	0.000000	0.000000	0.000000	496.110416	524.484933	0.000000	0.000000	22.293928	52.563471	0.000000	0.000000	0.000000	852.773327	165.419215	1590.039124	90.033200	3.191293	4.810911	0.000000	3.330213	24.606956	0.000000	0.000000	0.000000	1.965071	0.000000	0.000000	0.000000	0.000000	0.000000	205.442172	28.836541	108.987354	0.000000	0.000000	52.340646	29.247081	27.959085	26.045432	49.782641	0.000000	3.910122	4.563325	0.000000	18.934146	57.534673	0.000000	0.000000	0.000000	0.000000	0.000000	0.000000	33.147252	36.671898	66.504366	0.000000	0.000000	0.000000	0.000000	0.000000	0.000000	244.876149	0.000000	0.000000	6.015116	69.957832	7.390337	0.000000	0.000000	0.000000	0.000000	0.000000	0.000000
1.292000	156.447426	60.301176	64.043748	25.973266	25.447062	25.278394	0.000000	0.000000	0.000000	110.799042	12.070133	0.000000	0.000000	0.000000	0.000000	0.000000	32.203037	2.833060	0.569206	0.000000	0.000000	0.000000	506.246552	536.156825	0.000000	0.000000	25.839890	197.229376	0.000000	0.000000	0.000000	680.510883	132.134945	1399.004109	79.252227	2.809324	4.232078	0.000000	2.930757	21.640458	0.000000	0.000000	0.000000	31.675224	0.000000	0.000000	2.085189	0.000000	0.000000	150.571200	21.984813	77.754615	0.000000	0.000000	51.688892	27.428376	24.557993	23.853426	47.184212	0.000000	3.730044	3.696189	0.000000	6.608714	45.785304	0.000000	0.000000	0.000000	0.000000	0.000000	0.000000	83.263401	91.958436	170.890474	0.000000	0.000000	0.000000	0.000000	0.000000	0.000000	322.766932	0.000000	0.000000	7.943382	92.269996	9.744509	0.000000	0.000000	0.000000	0.000000	0.000000	0.000000
1.308000	99.983289	50.846592	72.315675	19.942925	20.595564	22.497619	0.000000	0.000000	0.000000	79.320261	10.899040	16.757782	0.000000	0.000000	0.000000	0.000000	28.721359	4.649240	1.226898	0.000000	0.000000	0.000000	466.554284	496.005975	5.892052	0.404970	31.692847	272.313925	0.000000	0.000000	0.000000	511.525096	99.446800	1162.862778	65.956810	2.341547	3.517306	0.000000	2.443380	17.961439	0.000000	0.000000	0.000000	83.590793	6.931658	0.000000	6.555540	3.354906	0.000000	188.321232	26.147466	94.724664	0.000000	0.000000	34.148815	22.637061	20.915903	23.761171	56.553039	0.000000	1.523236	3.027004	8.646035	28.386764	51.760946	0.000000	0.000000	0.000000	0.000000	0.000000	0.000000	124.751714	137.909518	261.599682	0.000000	0.000000	0.000000	0.000000	0.000000	0.000000	365.051830	0.000000	0.000000	8.998077	104.415559	11.024466	0.000000	0.000000	0.000000	0.000000	0.000000	0.000000
1.324000	29.906392	26.327851	54.461057	12.441783	13.337789	15.609751	0.000000	0.000000	0.000000	52.177089	9.302046	48.994198	0.000000	0.000000	0.000000	0.000000	23.152909	7.096429	2.218442	0.000000	0.000000	0.000000	420.555201	447.903882	17.177132	1.628041	28.828453	309.417236	0.000000	0.000000	0.000000	361.779560	70.458423	931.561676	52.962300	1.888154	2.818300	0.000000	1.970226	14.349749	0.000000	0.000000	0.000000	159.355244	28.015682	0.000000	13.423029	9.531003	3.266759	203.416528	27.148615	95.261700	0.000000	0.000000	11.946105	14.523381	12.988778	20.660026	61.987212	0.000000	0.000000	1.730868	20.530318	41.270486	46.589425	0.000000	0.000000	0.000000	0.000000	0.000000	0.000000	169.536763	187.635494	360.588856	0.000000	0.000000	0.000000	0.000000	0.000000	0.000000	381.987888	0.000000	0.000000	9.424563	109.298594	11.538533	0.000000	0.000000	0.000000	0.000000	0.000000	0.000000
